HIERARCHY
ROOT Hips
{
	OFFSET -0.001795 -0.223333 0.028219
	CHANNELS 6 Xposition Yposition Zposition Zrotation Yrotation Xrotation 
	JOINT LeftUpLeg
	{
		OFFSET 0.069520 -0.091406 -0.006815
		CHANNELS 3 Zrotation Yrotation Xrotation
		JOINT LeftLeg
		{
			OFFSET 0.034277 -0.375199 -0.004496
			CHANNELS 3 Zrotation Yrotation Xrotation
			JOINT LeftFoot
			{
				OFFSET -0.013596 -0.397961 -0.043693
				CHANNELS 3 Zrotation Yrotation Xrotation
				JOINT LeftToe
				{
					OFFSET 0.026358 -0.055791 0.119288
					CHANNELS 3 Zrotation Yrotation Xrotation
					End Site
					{
						OFFSET 0.000000 0.000000 0.000000
					}
				}
			}
		}
	}
	JOINT RightUpLeg
	{
		OFFSET -0.067670 -0.090522 -0.004320
		CHANNELS 3 Zrotation Yrotation Xrotation
		JOINT RightLeg
		{
			OFFSET -0.038290 -0.382569 -0.008850
			CHANNELS 3 Zrotation Yrotation Xrotation
			JOINT RightFoot
			{
				OFFSET 0.015774 -0.398415 -0.042312
				CHANNELS 3 Zrotation Yrotation Xrotation
				JOINT RightToe
				{
					OFFSET -0.025372 -0.048144 0.123348
					CHANNELS 3 Zrotation Yrotation Xrotation
					End Site
					{
						OFFSET 0.000000 0.000000 0.000000
					}
				}
			}
		}
	}
	JOINT Spine
	{
		OFFSET -0.002533 0.108963 -0.026696
		CHANNELS 3 Zrotation Yrotation Xrotation
		JOINT Spine1
		{
			OFFSET 0.005487 0.135180 0.001092
			CHANNELS 3 Zrotation Yrotation Xrotation
			JOINT Spine2
			{
				OFFSET 0.001457 0.052922 0.025425
				CHANNELS 3 Zrotation Yrotation Xrotation
				JOINT Neck
				{
					OFFSET -0.002778 0.213870 -0.042857
					CHANNELS 3 Zrotation Yrotation Xrotation
					JOINT Head
					{
						OFFSET 0.005152 0.064970 0.051349
						CHANNELS 3 Zrotation Yrotation Xrotation
						End Site
						{
							OFFSET 0.000000 0.000000 0.000000
						}
					}
				}
				JOINT LeftShoulder
				{
					OFFSET 0.078845 0.121749 -0.034090
					CHANNELS 3 Zrotation Yrotation Xrotation
					JOINT LeftArm
					{
						OFFSET 0.090977 0.030469 -0.008868
						CHANNELS 3 Zrotation Yrotation Xrotation
						JOINT LeftForeArm
						{
							OFFSET 0.259612 -0.012772 -0.027456
							CHANNELS 3 Zrotation Yrotation Xrotation
							JOINT LeftHand
							{
								OFFSET 0.249234 0.008986 -0.001171
								CHANNELS 3 Zrotation Yrotation Xrotation
								End Site
								{
									OFFSET 0.000000 0.000000 0.000000
								}
							}
						}
					}
				}
				JOINT RightShoulder
				{
					OFFSET -0.081759 0.118833 -0.038615
					CHANNELS 3 Zrotation Yrotation Xrotation
					JOINT RightArm
					{
						OFFSET -0.096012 0.032551 -0.009143
						CHANNELS 3 Zrotation Yrotation Xrotation
						JOINT RightForeArm
						{
							OFFSET -0.253742 -0.013329 -0.021401
							CHANNELS 3 Zrotation Yrotation Xrotation
							JOINT RightHand
							{
								OFFSET -0.255298 0.007772 -0.005559
								CHANNELS 3 Zrotation Yrotation Xrotation
								End Site
								{
									OFFSET 0.000000 0.000000 0.000000
								}
							}
						}
					}
				}
			}
		}
	}
}
MOTION
Frames: 8
Frame Time: 0.050000
-0.024687 0.934359 0.037565 0.104001 -8.493192 3.129892 8.629681 -0.040215 -2.367904 -5.285618 0.664480 -1.088252 8.689915 17.847369 14.278709 0.000000 0.000000 0.000000 -10.708436 0.662589 -9.218311 8.083097 -0.815207 6.249466 -5.115272 -15.427531 12.589831 0.000000 0.000000 0.000000 7.263425 -1.883863 19.745121 -5.052321 1.734780 -19.722662 -2.382216 10.593380 26.444658 16.671726 -6.068135 -31.091390 0.000000 0.000000 0.000000 -11.345786 -20.664434 7.964552 -18.511206 -29.749982 0.059852 99.348471 -69.007566 -75.503873 0.000000 0.000000 0.000000 20.754124 8.121983 5.061268 3.346494 37.914390 -2.490610 -44.312979 23.393924 -7.623766 0.000000 0.000000 0.000000 
-0.024906 0.934013 0.038006 0.228394 -8.259964 3.123235 8.622270 -0.044052 -2.291815 -5.460363 0.680254 -1.272724 8.561571 17.672093 14.170695 0.000000 0.000000 0.000000 -10.807409 0.650714 -8.978493 8.052914 -0.811397 5.955990 -5.240259 -15.600492 12.467422 0.000000 0.000000 0.000000 7.232316 -1.866641 19.486348 -5.153850 1.765174 -19.964730 -2.333258 10.162906 26.666769 16.196047 -5.823153 -31.253508 0.000000 0.000000 0.000000 -11.856775 -20.126509 7.829239 -18.081781 -28.809637 -0.086742 97.688574 -67.694302 -72.494686 0.000000 0.000000 0.000000 21.383172 7.377311 4.598619 5.891748 36.547115 -1.924749 -46.177824 28.441282 -10.025022 0.000000 0.000000 0.000000 
-0.025080 0.933889 0.038355 0.304381 -8.218025 3.072665 8.557243 -0.043749 -2.206334 -5.471647 0.680585 -1.317985 8.533875 17.633896 14.141297 0.000000 0.000000 0.000000 -10.784995 0.646702 -8.837392 7.887199 -0.788854 5.854217 -5.269207 -15.629911 12.362860 0.000000 0.000000 0.000000 7.266162 -1.848746 19.177016 -5.220146 1.787108 -19.845230 -2.425649 9.789704 26.407612 15.720254 -5.592010 -31.289482 0.000000 0.000000 0.000000 -12.482602 -19.389833 7.602819 -17.527953 -28.601629 -0.155060 92.506742 -66.121189 -65.987209 0.000000 0.000000 0.000000 21.956965 6.727394 4.148083 8.661040 35.369928 -1.364672 -47.736877 33.066379 -12.355042 0.000000 0.000000 0.000000 
-0.025273 0.933512 0.038615 0.480998 -8.098916 3.003737 8.469970 -0.044004 -2.034543 -5.623214 0.693748 -1.545035 8.455122 17.525703 14.073934 0.000000 0.000000 0.000000 -10.843286 0.636946 -8.536345 7.678901 -0.758763 5.504024 -5.344105 -15.716403 12.172363 0.000000 0.000000 0.000000 7.185192 -1.811715 18.863997 -5.279214 1.804970 -19.958958 -2.427299 9.447389 26.540009 15.338903 -5.502713 -30.976582 0.000000 0.000000 0.000000 -12.615730 -19.073218 7.526068 -17.509305 -28.054312 -0.213639 89.152905 -64.253569 -61.085295 0.000000 0.000000 0.000000 22.598429 6.090633 3.720943 11.084548 34.299418 -0.944938 -49.560334 37.277203 -14.796367 0.000000 0.000000 0.000000 
-0.025451 0.933034 0.038676 0.573134 -8.183713 2.790507 8.545210 -0.027789 -1.651173 -5.923759 0.726673 -1.791386 8.461615 17.535832 14.000410 0.000000 0.000000 0.000000 -10.807454 0.629763 -8.179237 7.458935 -0.725217 5.255415 -5.318363 -15.632485 11.912695 0.000000 0.000000 0.000000 7.299405 -1.803481 18.623311 -5.388714 1.837921 -19.861871 -2.579773 9.133006 26.401447 15.051089 -5.434330 -30.803573 0.000000 0.000000 0.000000 -12.967547 -18.622429 7.409424 -17.219197 -27.792276 -0.262479 84.669648 -62.667185 -55.674800 0.000000 0.000000 0.000000 23.014769 5.587017 3.323478 13.288820 33.437194 -0.580860 -51.847645 41.121421 -17.459399 0.000000 0.000000 0.000000 
-0.025497 0.932616 0.038349 0.695867 -8.169281 2.694035 8.394466 -0.025743 -1.488363 -5.882351 0.718770 -1.965747 8.452402 17.525037 13.924021 0.000000 0.000000 0.000000 -10.951165 0.625477 -8.136129 7.488225 -0.729981 5.308702 -5.350609 -15.659459 11.742317 0.000000 0.000000 0.000000 7.183207 -1.760498 18.366386 -5.282809 1.811955 -19.679924 -2.723478 9.054886 26.199655 14.797890 -5.373309 -30.435781 0.000000 0.000000 0.000000 -12.871122 -18.624663 7.408342 -17.227572 -27.345127 -0.284524 81.470111 -60.845030 -51.416451 0.000000 0.000000 0.000000 23.573778 5.358664 3.176917 15.163856 32.861014 -0.294790 -54.458846 44.602543 -20.286582 0.000000 0.000000 0.000000 
-0.025337 0.932298 0.037649 0.669798 -8.247414 2.549759 8.435434 -0.016577 -1.353763 -5.920203 0.724638 -1.969019 8.492391 17.583895 13.827110 0.000000 0.000000 0.000000 -10.849764 0.625619 -8.220290 7.349338 -0.715958 5.640057 -5.332573 -15.612711 11.597662 0.000000 0.000000 0.000000 7.291378 -1.761875 18.234464 -5.288814 1.814248 -19.644014 -2.809132 8.955449 26.037090 14.343589 -5.213768 -30.062233 0.000000 0.000000 0.000000 -13.049532 -18.500917 7.387747 -16.685701 -26.991629 -0.357620 77.866697 -58.809320 -46.859968 0.000000 0.000000 0.000000 24.003170 5.098972 2.985358 17.148750 32.584980 0.015890 -57.080444 47.783846 -23.184301 0.000000 0.000000 0.000000 
-0.024930 0.931801 0.036586 0.718376 -8.138312 2.432601 8.391474 -0.016350 -1.335763 -5.949396 0.727291 -1.949711 8.451911 17.532062 13.638853 0.000000 0.000000 0.000000 -10.906412 0.619805 -8.328092 7.331569 -0.721258 5.966032 -5.408677 -15.719006 11.463709 0.000000 0.000000 0.000000 7.128397 -1.712278 17.944168 -5.099285 1.769085 -19.277065 -2.854497 8.866432 25.705833 14.210993 -5.130309 -30.027224 0.000000 0.000000 0.000000 -12.749758 -18.658712 7.427752 -16.297479 -26.703703 -0.395173 74.559075 -56.773744 -42.783326 0.000000 0.000000 0.000000 24.216429 4.763195 2.766192 18.811199 32.487550 0.298701 -60.001790 50.549283 -26.221830 0.000000 0.000000 0.000000 
